<?xml version="1.0" encoding="UTF-8" standalone="no"?>
<svg xmlns="http://www.w3.org/2000/svg" version="1.1" viewBox="0 0 147.78625 94">
  <g transform="matrix(1.25 0 0 -1.25 -575.81 809.23)">
    <g transform="translate(.55507 .83260)">
      <path fill="#FFFFFF" d="m577.27 611.12c-0.195 14.761-2.449 22.69-8.039 28.277-5.324 5.325-12.121 6.395-21.362 6.395h-87.222l40.593-54.715h12.32v-18.885h34.309c9.242 0 16.039 1.07 21.362 6.395 5.639 5.64 7.895 13.707 8.045 28.826l-0.006 3.707zm-36.349 11.279h3.903c1.59 0 2.56-0.047 3.151-0.103 0.23-1.776 0.357-5.544 0.377-11.238l0.002-3.641c-0.006-2.391-0.023-9.022-0.374-11.73-0.59-0.056-1.562-0.104-3.156-0.104h-3.903v26.816z"/>
      <path fill="#D70036" transform="matrix(.8 0 0 -.8 460.65 645.79)" d="m11.168 5.6211 13.352 17.998h28.539l12.322-17.998h-54.213zm59.877 0-12.32 18h20.754l-8.4062 4.6406v15.152h23.65v-19.793h10.5c5.1888 0 7.1497 0.345 8.3047 1.5 1.1975 1.1962 1.6753 4.3542 1.7266 18.293h24.904c-0.23-18.319-3.1-26.155-8.4-31.447-4.84-4.8465-11.07-6.3459-22.72-6.3459h-37.984zm-4.9043 22.631-38.174 0.01953 11.236 15.143h26.938v-15.162zm-23.518 19.73 11.971 16.184 10.896-16.184h-22.867zm28.199 0-11.223 16.184h19.879l-8.4004 4.2363-0.0059 17.977h37.957c11.649 0 17.882-1.5002 22.727-6.3477 5.3512-5.3512 8.2239-13.293 8.4102-32.049h-24.91c-0.0362 14.554-0.51352 17.682-1.7285 18.898-1.155 1.1538-3.1179 1.502-8.3066 1.502h-10.498v-20.4h-23.9z"/>
    </g>
  </g>
</svg>
